<?xml version="1.0" encoding="utf-8"?>
<!-- Generator: Adobe Illustrator 19.0.0, SVG Export Plug-In . SVG Version: 6.00 Build 0)  -->
<svg version="1.1" id="Layer_1" xmlns="http://www.w3.org/2000/svg" xmlns:xlink="http://www.w3.org/1999/xlink" x="0px" y="0px"
	 viewBox="0 0 16 16" style="enable-background:new 0 0 16 16;" xml:space="preserve">
<g id="Base">
	<g id="XMLID_52_">
		<path id="XMLID_56_" d="M8,1.5c-3.8,0-7,3.2-7,7.2S4.2,16,8,16s7-3.2,7-7.2S11.8,1.5,8,1.5z M8,14.7c-3.2,0-5.8-2.7-5.8-6
			c0-3.3,2.6-6,5.8-6s5.8,2.7,5.8,6C13.8,12.1,11.2,14.7,8,14.7z"/>
		<path id="XMLID_53_" d="M10.8,4.9c-0.7-0.5-2.6,0.8-4.1,2.9c-1.5,2.1-2.2,4.3-1.5,4.8s2.6-0.8,4.1-2.9C10.9,7.5,11.6,5.4,10.8,4.9
			z M7.5,9.4C7.1,9.1,7.1,8.6,7.3,8.2C7.6,7.9,8.1,7.8,8.5,8C8.9,8.3,9,8.9,8.7,9.2C8.4,9.6,7.9,9.7,7.5,9.4z"/>
	</g>
</g>
</svg>
