<?xml version="1.0" encoding="utf-8"?>
<!-- Generator: Adobe Illustrator 19.0.0, SVG Export Plug-In . SVG Version: 6.00 Build 0)  -->
<svg version="1.1" id="Layer_1" xmlns="http://www.w3.org/2000/svg" xmlns:xlink="http://www.w3.org/1999/xlink" x="0px" y="0px"
	 viewBox="0 0 16 16" style="enable-background:new 0 0 16 16;" xml:space="preserve">
<g id="XMLID_377_">
	<g id="XMLID_327_">
		<g id="XMLID_379_">
			<path id="XMLID_383_" d="M4.4,6c-1.1,0-2,1-2,2.2s0.9,2.2,2,2.2c1.1,0,2-1,2-2.2S5.5,6,4.4,6z M4.4,9.4c-0.6,0-1.1-0.5-1.1-1.2
				c0-0.7,0.5-1.2,1.1-1.2s1.1,0.5,1.1,1.2C5.5,8.8,5,9.4,4.4,9.4z"/>
			<path id="XMLID_382_" d="M4.4,10.8c1.5,0,2.8,2.2,3.1,5.2h1.1c0-3-1.9-6.1-4.2-6.1S0.2,13,0.2,16h1.1C1.5,13,2.8,10.8,4.4,10.8z"
				/>
		</g>
		<rect id="XMLID_378_" x="0.3" y="14.8" width="8.3" height="1.1"/>
	</g>
	<g id="XMLID_354_">
		<g id="XMLID_366_">
			<path id="XMLID_373_" d="M11.6,5.5c-1.2,0-2.1,1-2.1,2.3s0.9,2.3,2.1,2.3c1.2,0,2.1-1,2.1-2.3S12.8,5.5,11.6,5.5z M11.7,9.1
				c-0.7,0-1.2-0.6-1.2-1.3s0.5-1.3,1.2-1.3s1.2,0.6,1.2,1.3S12.3,9.1,11.7,9.1z"/>
			<path id="XMLID_367_" d="M11.7,10.5c1.6,0,3,2.5,3.3,5.5h1.1c0-3-2-6.4-4.4-6.4S7.3,13,7.3,16h1.1C8.7,13,10,10.5,11.7,10.5z"/>
		</g>
		<rect id="XMLID_355_" x="7.3" y="14.8" width="8.7" height="1.2"/>
	</g>
</g>
</svg>
