<?xml version="1.0" encoding="utf-8"?>
<!-- Generator: Adobe Illustrator 19.0.0, SVG Export Plug-In . SVG Version: 6.00 Build 0)  -->
<svg version="1.1" id="Layer_1" xmlns="http://www.w3.org/2000/svg" xmlns:xlink="http://www.w3.org/1999/xlink" x="0px" y="0px"
	 viewBox="0 0 32 32" style="enable-background:new 0 0 32 32;" xml:space="preserve">
<style type="text/css">
	.st0{display:none;}
</style>
<path id="Twitter" class="st0" d="M28.3,5.6c-1,0.6-2.2,1.1-3.4,1.3c-1-1.1-2.4-1.7-3.9-1.7c-2.9,0-5.3,2.4-5.3,5.5
	c0,0.4,0,0.8,0.1,1.2c-4.4-0.2-8.3-2.4-11-5.7C4.4,7,4.1,7.9,4.1,8.9c0,1.9,0.9,3.6,2.4,4.5c-0.9,0-1.7-0.3-2.4-0.7v0.1
	c0,2.6,1.8,4.8,4.3,5.3c-0.4,0.1-0.9,0.2-1.4,0.2c-0.3,0-0.7,0-1-0.1c0.7,2.2,2.6,3.7,5,3.8c-1.8,1.5-4.1,2.3-6.6,2.3
	c-0.4,0-0.9,0-1.3-0.1c2.4,1.5,5.2,2.4,8.2,2.4c9.8,0,15.1-8.3,15.1-15.5c0-0.2,0-0.5,0-0.7c1-0.8,1.9-1.7,2.7-2.8
	c-1,0.4-2,0.7-3.1,0.9C27,7.9,27.9,6.9,28.3,5.6z"/>
<path id="Facebook" class="st0" d="M26.9,25.7c0,0.7-0.5,1.2-1.2,1.2h-5.5v-8.4h2.8l0.4-3.3h-3.2v-2.1c0-0.9,0.3-1.6,1.6-1.6l1.7,0
	V8.6c-0.3,0-1.3-0.1-2.5-0.1c-2.5,0-4.2,1.5-4.2,4.3v2.4h-2.8v3.3h2.8v8.4H6.3c-0.7,0-1.2-0.5-1.2-1.2V6.3c0-0.7,0.5-1.2,1.2-1.2
	h19.3c0.7,0,1.2,0.5,1.2,1.2V25.7z"/>
<g id="Google_x2B_">
	<path id="XMLID_561_" d="M10.2,14v4c0,0,3.9,0,5.5,0c-0.9,2.6-2.2,4-5.5,4c-3.3,0-5.9-2.7-5.9-6s2.6-6,5.9-6c1.8,0,2.9,0.6,3.9,1.5
		c0.8-0.8,0.8-1,2.9-3c-1.8-1.6-4.2-2.6-6.8-2.6C4.6,5.8,0,10.4,0,16c0,5.6,4.5,10.2,10.1,10.2c8.4,0,10.4-7.3,9.7-12.2H10.2z"/>
	<polygon id="XMLID_546_" points="28.4,14.2 28.4,10.7 25.9,10.7 25.9,14.2 22.3,14.2 22.3,16.7 25.9,16.7 25.9,20.3 28.4,20.3 
		28.4,16.7 32,16.7 32,14.2 	"/>
</g>
</svg>
