<?xml version="1.0" encoding="utf-8"?>
<!-- Generator: Adobe Illustrator 19.0.0, SVG Export Plug-In . SVG Version: 6.00 Build 0)  -->
<svg version="1.1" id="Layer_1" xmlns="http://www.w3.org/2000/svg" xmlns:xlink="http://www.w3.org/1999/xlink" x="0px" y="0px"
	 viewBox="0 0 16 16" style="enable-background:new 0 0 16 16;" xml:space="preserve">
<path id="XMLID_388_" d="M11.2,2.6c0.2,0,0.4,0,0.6,0c1.4,0.1,3,1.4,3.2,3.8v0.8c-0.2,2.3-1.9,5.2-7,8.7c-5.1-3.6-6.8-6.4-7-8.7V6.5
	C1.2,4,2.8,2.8,4.1,2.6c0.2,0,0.4,0,0.6,0c1.6,0,2.4,0.7,3.2,1.7C8.9,3.3,9.6,2.6,11.2,2.6 M11.2,4.1c-0.9,0-1.3,0.3-2.1,1.2L8,6.7
	L6.8,5.3C6.1,4.4,5.7,4.1,4.8,4.1c-0.1,0-0.3,0-0.5,0C3.6,4.2,2.7,4.9,2.5,6.5v0.7c0.2,2,2,4.3,5.5,6.9c3.5-2.6,5.3-4.9,5.5-6.9V6.5
	c-0.2-1.6-1.1-2.3-1.8-2.3C11.5,4.2,11.4,4.1,11.2,4.1L11.2,4.1z"/>
</svg>
