<?xml version="1.0" encoding="UTF-8" standalone="no"?>
<!-- Generator: Adobe Illustrator 19.0.0, SVG Export Plug-In . SVG Version: 6.00 Build 0)  -->

<svg
   xmlns:dc="http://purl.org/dc/elements/1.1/"
   xmlns:cc="http://creativecommons.org/ns#"
   xmlns:rdf="http://www.w3.org/1999/02/22-rdf-syntax-ns#"
   xmlns:svg="http://www.w3.org/2000/svg"
   xmlns="http://www.w3.org/2000/svg"
   xmlns:sodipodi="http://sodipodi.sourceforge.net/DTD/sodipodi-0.dtd"
   xmlns:inkscape="http://www.inkscape.org/namespaces/inkscape"
   version="1.1"
   id="Layer_1"
   x="0px"
   y="0px"
   viewBox="0 0 128 128"
   style="enable-background:new 0 0 128 128;"
   xml:space="preserve"
   inkscape:version="0.48.4 r9939"
   width="100%"
   height="100%"
   sodipodi:docname="popular.svg"><metadata
     id="metadata3469"><rdf:RDF><cc:Work
         rdf:about=""><dc:format>image/svg+xml</dc:format><dc:type
           rdf:resource="http://purl.org/dc/dcmitype/StillImage" /><dc:title></dc:title></cc:Work></rdf:RDF></metadata><defs
     id="defs3467" /><sodipodi:namedview
     pagecolor="#ffffff"
     bordercolor="#666666"
     borderopacity="1"
     objecttolerance="10"
     gridtolerance="10"
     guidetolerance="10"
     inkscape:pageopacity="0"
     inkscape:pageshadow="2"
     inkscape:window-width="660"
     inkscape:window-height="480"
     id="namedview3465"
     showgrid="false"
     inkscape:zoom="1.875"
     inkscape:cx="64"
     inkscape:cy="64"
     inkscape:window-x="0"
     inkscape:window-y="30"
     inkscape:window-maximized="0"
     inkscape:current-layer="Layer_1" /><style
     type="text/css"
     id="style3450">
	.st0{display:none;}
	.st1{display:inline;}
	.st2{fill:#CC007A;}
</style><g
     id="XMLID_10_"><path
       id="XMLID_51_"
       d="M64,10c-29.7,0-54,24.3-54,54s24.3,54,54,54s54-24.3,54-54S93.7,10,64,10z M108,64c0,24.2-19.8,44-44,44   S20,88.2,20,64s19.8-44,44-44S108,39.8,108,64z" /></g><g
     id="XMLID_22_"
     class="st0"><g
       id="XMLID_20_"
       class="st1"><rect
         id="XMLID_18_"
         x="48.8"
         y="55"
         class="st2"
         width="10"
         height="31.2" /><polygon
         id="XMLID_23_"
         class="st2"
         points="67.8,55 40.2,55 54,41.2   " /></g><g
       id="XMLID_21_"
       class="st1"><rect
         id="XMLID_19_"
         x="68.8"
         y="42"
         class="st2"
         width="10"
         height="31.2" /><polygon
         id="XMLID_31_"
         class="st2"
         points="87.8,73 60.2,73 74,86.8   " /></g></g><path
     sodipodi:type="arc"
     style="fill:#000000;fill-opacity:1;stroke:none"
     id="path3471"
     sodipodi:cx="67.73333"
     sodipodi:cy="69.333336"
     sodipodi:rx="13.866667"
     sodipodi:ry="13.866667"
     d="m 81.599997,69.333336 a 13.866667,13.866667 0 1 1 -27.733334,0 13.866667,13.866667 0 1 1 27.733334,0 z"
     transform="translate(-3.7333298,-5.3333359)" /></svg>