<?xml version="1.0" encoding="utf-8"?>
<!-- Generator: Adobe Illustrator 22.0.0, SVG Export Plug-In . SVG Version: 6.00 Build 0)  -->
<svg version="1.1" id="Layer_1" xmlns="http://www.w3.org/2000/svg" xmlns:xlink="http://www.w3.org/1999/xlink" x="0px" y="0px"
	 viewBox="0 0 128 128" style="enable-background:new 0 0 128 128;" xml:space="preserve">
<style type="text/css">
	.st0{fill:#E80A65;}
	.st1{display:none;}
	.st2{display:inline;}
	.st3{fill:#CC007A;}
</style>
<g id="XMLID_10_">
	<path id="XMLID_51_" class="st0" d="M64,10c-29.7,0-54,24.3-54,54s24.3,54,54,54s54-24.3,54-54S93.7,10,64,10z M108,64
		c0,24.2-19.8,44-44,44S20,88.2,20,64s19.8-44,44-44S108,39.8,108,64z"/>
</g>
<g id="XMLID_5_">
	<g id="XMLID_46_">
		<g id="XMLID_47_">
			<path id="XMLID_48_" class="st0" d="M63.6,43.2c0.2-0.5,0.6-0.5,0.9,0l6.2,12.5c0.2,0.5,0.9,1,1.4,1l13.8,2
				c0.5,0.1,0.7,0.5,0.3,0.8l-10,9.7c-0.4,0.4-0.6,1.1-0.5,1.7l2.4,13.7c0.1,0.5-0.2,0.8-0.7,0.5l-12.3-6.5c-0.5-0.3-1.3-0.3-1.8,0
				L51,85.1c-0.5,0.3-0.8,0-0.7-0.5L52.4,71c0.1-0.5-0.2-1.3-0.5-1.7l-10-9.7c-0.4-0.4-0.3-0.8,0.3-0.8l13.8-2
				c0.5-0.1,1.2-0.5,1.4-1L63.6,43.2z"/>
		</g>
	</g>
</g>
<g id="XMLID_22_" class="st1">
	<g id="XMLID_20_" class="st2">
		<rect id="XMLID_18_" x="48.8" y="55" class="st3" width="10" height="31.2"/>
		<polygon id="XMLID_23_" class="st3" points="67.8,55 40.2,55 54,41.2 		"/>
	</g>
	<g id="XMLID_21_" class="st2">
		<rect id="XMLID_19_" x="68.8" y="42" class="st3" width="10" height="31.2"/>
		<polygon id="XMLID_31_" class="st3" points="87.8,73 60.2,73 74,86.8 		"/>
	</g>
</g>
</svg>
