<?xml version="1.0" encoding="utf-8"?>
<!-- Generator: Adobe Illustrator 19.0.0, SVG Export Plug-In . SVG Version: 6.00 Build 0)  -->
<svg version="1.1" id="Layer_1" xmlns="http://www.w3.org/2000/svg" xmlns:xlink="http://www.w3.org/1999/xlink" x="0px" y="0px"
	 viewBox="0 0 16 16" style="enable-background:new 0 0 16 16;" xml:space="preserve">
<g id="XMLID_1_">
	<path id="XMLID_308_" d="M7.8,3.5c-1.2,0-2.1,1-2.1,2.3S6.7,8,7.8,8C9,8,9.9,7,9.9,5.7S9,3.5,7.8,3.5z M7.8,7
		C7.2,7,6.7,6.4,6.7,5.7s0.5-1.3,1.2-1.3S9,5.1,9,5.7S8.5,7,7.8,7z"/>
	<path id="XMLID_311_" d="M7.8,8.6c1.6,0,2.9,3.4,3.2,5.4h1.1c0-2-2-6.3-4.3-6.3S3.5,12,3.5,14h1.1C4.9,12,6.2,8.6,7.8,8.6z"/>
	<path id="XMLID_312_" d="M7.9,1.5c-4,0-7.3,3.3-7.3,7.3c0,4,3.3,7.3,7.3,7.3s7.3-3.3,7.3-7.3C15.2,4.7,11.9,1.5,7.9,1.5z M7.9,14.9
		c-3.4,0-6.1-2.7-6.1-6.1c0-3.4,2.7-6.1,6.1-6.1s6.1,2.7,6.1,6.1C14.1,12.1,11.3,14.9,7.9,14.9z"/>
</g>
</svg>
