<?xml version="1.0" encoding="utf-8"?>
<!-- Generator: Adobe Illustrator 22.0.0, SVG Export Plug-In . SVG Version: 6.00 Build 0)  -->
<svg version="1.1"
	 id="Layer_1" inkscape:version="0.48.4 r9939" sodipodi:docname="search-mobile.svg" xmlns:cc="http://creativecommons.org/ns#" xmlns:dc="http://purl.org/dc/elements/1.1/" xmlns:inkscape="http://www.inkscape.org/namespaces/inkscape" xmlns:rdf="http://www.w3.org/1999/02/22-rdf-syntax-ns#" xmlns:sodipodi="http://sodipodi.sourceforge.net/DTD/sodipodi-0.dtd" xmlns:svg="http://www.w3.org/2000/svg"
	 xmlns="http://www.w3.org/2000/svg" xmlns:xlink="http://www.w3.org/1999/xlink" x="0px" y="0px" viewBox="0 0 48 48"
	 style="enable-background:new 0 0 48 48;" xml:space="preserve">
<style type="text/css">
	.st0{fill:#FFFFFF;}
</style>
<sodipodi:namedview  bordercolor="#666666" borderopacity="1" gridtolerance="10" guidetolerance="10" id="namedview3178" inkscape:current-layer="Layer_1" inkscape:cx="8.5526544" inkscape:cy="9.4062322" inkscape:pageopacity="0" inkscape:pageshadow="2" inkscape:window-height="713" inkscape:window-maximized="1" inkscape:window-width="1366" inkscape:window-x="0" inkscape:window-y="30" inkscape:zoom="22.627417" objecttolerance="10" pagecolor="#ffffff" showgrid="true">
	<inkscape:grid  empspacing="5" enabled="true" id="grid3979" snapvisiblegridlinesonly="true" type="xygrid" visible="true">
		</inkscape:grid>
</sodipodi:namedview>
<g id="g4018" transform="matrix(0.70710678,-0.70710678,0.70710678,0.70710678,-3.6235387,8.047794)">
	<path id="path3987" inkscape:connector-curvature="0" class="st0" d="M8.3,20.9c-3.9,0-7,3.2-7,7s3.2,7,7,7s7-3.2,7-7
		S12.1,20.9,8.3,20.9z M8.3,22.3c3.1,0,5.6,2.5,5.6,5.6s-2.5,5.6-5.6,5.6S2.6,31.1,2.6,28S5.1,22.3,8.3,22.3z"/>
	
		<rect id="rect4010" x="7.6" y="33.7" transform="matrix(-1 2.535182e-06 -2.535182e-06 -1 16.5058 76.6511)" class="st0" width="1.3" height="9.3"/>
</g>
</svg>
