<?xml version="1.0" encoding="utf-8"?>
<!-- Generator: Adobe Illustrator 19.0.0, SVG Export Plug-In . SVG Version: 6.00 Build 0)  -->
<svg version="1.1" id="Layer_1" xmlns="http://www.w3.org/2000/svg" xmlns:xlink="http://www.w3.org/1999/xlink" x="0px" y="0px"
	 viewBox="0 0 128 128" style="enable-background:new 0 0 128 128;" xml:space="preserve">
<style type="text/css">
	.st0{display:none;}
	.st1{display:inline;}
</style>
<g id="XMLID_10_">
	<path id="XMLID_51_" d="M64,10c-29.7,0-54,24.3-54,54s24.3,54,54,54s54-24.3,54-54S93.7,10,64,10z M108,64c0,24.2-19.8,44-44,44
		S20,88.2,20,64s19.8-44,44-44S108,39.8,108,64z"/>
</g>
<g id="XMLID_5_" class="st0">
	<g id="XMLID_46_" class="st1">
		<g id="XMLID_47_">
			<path id="XMLID_48_" d="M63.6,43.2c0.2-0.5,0.6-0.5,0.9,0l6.2,12.5c0.2,0.5,0.9,1,1.4,1l13.8,2c0.5,0.1,0.7,0.5,0.3,0.8l-10,9.7
				c-0.4,0.4-0.6,1.1-0.5,1.7l2.4,13.7c0.1,0.5-0.2,0.8-0.7,0.5l-12.3-6.5c-0.5-0.3-1.3-0.3-1.8,0l-12.3,6.5c-0.5,0.3-0.8,0-0.7-0.5
				L52.4,71c0.1-0.5-0.2-1.3-0.5-1.7l-10-9.7c-0.4-0.4-0.3-0.8,0.3-0.8l13.8-2c0.5-0.1,1.2-0.5,1.4-1L63.6,43.2z"/>
		</g>
	</g>
</g>
<g id="XMLID_22_">
	<g id="XMLID_20_">
		<rect id="XMLID_18_" x="45.3" y="55" width="10" height="31.2"/>
		<polygon id="XMLID_23_" points="64.3,55 36.7,55 50.5,41.2 		"/>
	</g>
	<g id="XMLID_21_">
		<rect id="XMLID_19_" x="72.3" y="42" width="10" height="31.2"/>
		<polygon id="XMLID_31_" points="91.3,73 63.7,73 77.5,86.8 		"/>
	</g>
</g>
</svg>
